<?xml version="1.0" encoding="UTF-8" standalone="no"?>
<svg
   version="2.0"
   width="91.537374pt"
   height="116.68214pt"
   viewBox="0 0 91.537374 116.68214"
   preserveAspectRatio="xMidYMid"
   id="svg16"
   sodipodi:docname="agulha.svg"
   inkscape:export-filename="agulhaelinha.svg"
   inkscape:export-xdpi="300"
   inkscape:export-ydpi="300"
   standalone="no"
   inkscape:version="1.5-dev (5904022, 2026-05-05, custom)"
   xmlns:inkscape="http://www.inkscape.org/namespaces/inkscape"
   xmlns:sodipodi="http://sodipodi.sourceforge.net/DTD/sodipodi-0.dtd"
   xmlns="http://www.w3.org/2000/svg"
   xmlns:svg="http://www.w3.org/2000/svg">
  <defs
     id="defs16">
    <view
       viewBox="0 0 91.537374 116.68214"
       id="view2"
       inkscape:margin="0"
       inkscape:bleed="0" />
  </defs>
  <sodipodi:namedview
     id="namedview16"
     pagecolor="#ffffff"
     bordercolor="#000000"
     borderopacity="0.25"
     inkscape:showpageshadow="2"
     inkscape:pageopacity="0.0"
     inkscape:pagecheckerboard="0"
     inkscape:deskcolor="#d1d1d1"
     inkscape:document-units="pt"
     showgrid="false"
     inkscape:zoom="2.5772985"
     inkscape:cx="46.948383"
     inkscape:cy="81.286664"
     inkscape:window-width="1366"
     inkscape:window-height="720"
     inkscape:window-maximized="1"
     inkscape:current-layer="svg16" />
  <path
     id="path1"
     style="fill:none;fill-opacity:0.956863;stroke:#84592b;stroke-width:1;stroke-linecap:round;stroke-linejoin:round;stroke-dasharray:none;stroke-opacity:1"
     d="m 45.90946,26.675069 c 2.334372,6.300917 8.080255,13.634147 19.084856,21.378128 13.31684,6.75333 21.12461,9.345753 23.36877,24.860542"
     sodipodi:nodetypes="ccc" />
  <path
     id="path4"
     style="fill:#74675a;fill-opacity:0.956863;stroke:#74675a;stroke-width:0.627682;stroke-linecap:round;stroke-linejoin:miter;stroke-dasharray:none;stroke-opacity:1"
     d="m 47.853762,13.347528 c -1.721663,0.03038 -4.450926,2.812633 -7.422363,10.894043 -1.518768,4.130599 -3.936035,11.85498 -3.936035,11.85498 0,0 -28.7684201,77.315549 -28.1440431,77.635249 0.624373,0.3197 0.668786,0.9401 1.8676761,-2.0669 1.198888,-3.007 30.364746,-73.470693 30.364746,-73.470693 l 1.700683,-3.830566 c 1.189486,-2.679256 5.641443,-11.776839 6.949219,-15.399902 1.055783,-2.924941 0.341781,-5.646595 -1.379883,-5.616211 z m -1.040039,3.46875 c 1.427771,-0.05847 -0.766388,7.162286 -3.219726,11.034668 -1.03408,1.632205 -1.887846,1.632039 -2.15625,0.738281 -0.480865,-1.601214 3.08736,-10.283301 4.875,-11.554688 0.201069,-0.143002 0.366742,-0.212764 0.500976,-0.218261 z" />
  <path
     id="path3"
     style="fill:#a59990;fill-opacity:0.956863;stroke:#a59990;stroke-width:0.627682;stroke-linecap:round;stroke-linejoin:miter;stroke-opacity:1"
     d="m 47.005618,15.196161 c -2.678207,0.0022 -8.708154,17.927626 -8.037598,20.188476 0.716155,2.414571 13.575903,-20.192976 8.037598,-20.188476 z m -0.191895,1.620117 c 1.427771,-0.05847 -0.766388,7.162286 -3.219726,11.034668 -1.03408,1.632205 -1.887846,1.632039 -2.15625,0.738281 -0.480865,-1.601214 3.08736,-10.283301 4.875,-11.554688 0.201069,-0.143002 0.366742,-0.212764 0.500976,-0.218261 z" />
  <path
     style="fill:#a59990;fill-opacity:0.792157;stroke:none;stroke-width:1.04254;stroke-linecap:round;stroke-linejoin:miter;stroke-dasharray:none;stroke-opacity:1"
     d="m 42.0732,35.448287 c 0,0 -2.104702,1.996806 -3.518389,5.298509 C 37.141123,44.048497 8.5841069,113.60637 9.0283449,114.19621 9.7525719,115.15779 15.527129,99.298518 16.34137,97.500308 17.155608,95.702108 42.0732,35.448287 42.0732,35.448287 Z"
     id="path19"
     sodipodi:nodetypes="csssc" />
  <path
     style="fill:none;fill-opacity:0.956863;stroke:#84592b;stroke-width:1;stroke-linecap:round;stroke-linejoin:round;stroke-dasharray:none;stroke-opacity:1"
     d="m 80.827321,95.099423 c 0,0 -21.173172,-17.11731 -16.60442,-42.660744 4.56874,-25.543436 8.9298,-40.911044 -3.530392,-46.9334734 C 52.442908,1.5179006 39.733016,10.360088 45.10004,24.84912"
     id="path5" />
  <path
     style="fill:none;fill-opacity:0.956863;stroke:#a59990;stroke-width:0.999997;stroke-linecap:round;stroke-linejoin:round;stroke-opacity:1"
     d="M 45.734597,23.983621 45.07612,25.491185"
     id="path6" />
</svg>
