<svg xmlns="http://www.w3.org/2000/svg" width="741" height="736" fill="none"><path fill="#c4a883" d="M739.969 367.98c1.216 15.497.804 31.013-1.715 46.801-.58 3.588-1.483 3.118-1.835 4.57-.646 2.658-.342 7.346-.451 7.993-.634 3.963-2.019 2.137-2.169 2.659-1.686 5.776.479 4.413-.425 10.073-1.203 7.386-3.662 16.657-6.123 25.323-.88 3.038-1.683 1.361-3.486 7.907-1.214 4.617-4.512 19.191-8.429 24.998-.556-.167-.853-1.196-1.289-1.742-1.205 9.937-2.542 13.227-8.768 25.583-.999 1.945-.968 4.243-2.983 7.558-2.036 3.301-3.435 2.788-6.979 9.629-1.268 2.42-1.092 4.395-3.096 8.105-5.561 10.639-19.068 29.039-24.984 36.815-11.486 15.437-16.91 24.674-29.069 36.841-.94.929.186-1.991-1.488-.248-1.686 1.753-2.329 4.665-2.725 5.124-4.209 5.003-15.605 12.919-18.131 15.461-6.13 6.277.849 1.127-8.187 9.289-8.66 7.762-22.653 15.807-32.348 21.834-11.216 6.96-13.418 11.702-23.589 14.055-30.231 17.599-63.18 30.819-97.228 39.082a65 65 0 0 1-.105-1.878 329 329 0 0 1-7.803 3.082c.312-.537.603-1.07.913-1.603-12.278 4.467-23.65 7.361-38.857 8.54-.298.022.35-1.284.101-1.289-3.446.141-7.122 1.43-10.145 1.447-7.319.107-19.685-2.143-14.152.924-4.961.008-10.19.079-15.533.099-12.821.063-26.125-.256-37.39-1.861-6.951-.997-8.766-3.225-12.037-3.768-3.266-.562-1.828 1.321-3.005 1.22-7.089-.585-18.641-2.822-19.444-4.922-1.534.455-3.174.889-4.754 1.321 1.211-1.728-20.288-5.928-25.776-7.782-1.006-.303-.89-1.216-1.65-1.431-8.449-2.431-10.971-1.782-18.292-3.829-2.562-.741 1.855-.833-4.792-2.523-.574-.165-.804 1.361-8.434-1.639-12.2-4.655-35.131-14.914-48.171-23.504-1.071-.689 3.053-.092-2.145-2.71-1.874-.964-1.584.53-5.964-2.126-16.986-10.334-33.291-23.85-49.206-36.323 1.389-.463 7.709 3.17-.928-3.311-1.375-1.045-1.158.647-1.765.165-4.907-3.942-8.346-8.241-13.492-12.69-1.519-1.318-2.496-1.043-4.414-2.681-2.827-2.428-3.064-4.475-6.4-7.237-5.189-4.351-6.83-4.35-10.537-12.185-30.907-35.678-55.314-77.162-69.356-122.166-4.962-12.705-9.069-24.656-12.363-38.528-.95-4.108.425-5.192-1.323-11.641-.42-1.41-3.863-11.767-.851-13.742-.698-2.879-.954-4.731-1.443-7.233-.23 1.973-.44 4.01-.654 5.911-.98-10.729-2.947-19.349-4.087-28.89-.794-7.036.86-2.111.511-6.399-.314-4.283-.697-6.253.874-11.667-.812-1.738-1.056-3.252-1.056-4.977.003-2.451.487-5.32.634-9.889.023-.837-.572-5.691-.205-9.723.267-2.919 1.495-3.711 1.647-8.326 0-.763-.615-10.576-.358-13.734.312-4.884 2.905-12.294 3.073-13.201 2.353-13.417 1.994-18.849 6.529-27.745-1.013-2.227.029-10.281 1.949-16.555 2.294-7.968 10.398-22.611 8.228-25.76 4.637-8.462 3.405-7.819 7.699-18.268 3.748-9.658 17.101-33.383 21.347-40.537 4.057-7.256.493-4.668 1.994-7.634 2.508-4.848 2.08-1.658 4.034-4.817 5.562-8.903 10.548-16.556 16.1-24.938 1.058.118 2.144.21 3.211.32q.1-.893.206-1.788c1.311-1.705 2.776-3.619 4.034-5.163-13.563 10.788 10.218-12.724 17.227-19.637 5.643-6.133 14.082-17.382 20.635-23.92 1.578-1.59 1.117.182 1.439-.145 3.796-3.834 3.943-4.907 9.513-9.573 2.96-2.457 6.77-3.991 9.69-6.298 21.459-16.938 43.249-32.232 67.725-44.383 4.171-2.065 8.425-2.368 11.981-3.926 5.095-2.219 7.848-4.73 12.695-6.706 4.834-1.98 12.409-3.199 15.645-4.558 3.259-1.367-2.929-.755 3.323-2.485 2.875-.777-1.754 1.912 1.732.773 10.851-3.583 26.108-9.192 38.319-10.468-.594-.199-1.375-.322-2.085-.478 12.736-2.684 24.184-3.854 37.469-5.31 4.679-.526 12.95-2.229 17.575-2.517 4.611-.3 6.774.616 10.427.492 1.507-.045.884-.936 1.899-.953 4.958-.077 9.064.175 13.013.5 6.172.519 11.883 1.182 19.938 1.49 48.559 1.827 98.383 14.023 143.096 35.557 1.797.865 3.536.4 6.218 1.583 4.126 1.832 3.815 2.885 4.328 3.195 3.332 2.06 2.403.43 7.011 2.993 10.178 5.597 25.478 16.388 34.814 23.149 21.593 15.475 39.006 29.745 57.155 48.622 1.302 1.366-.594 1.371 1.579 3.799 14.96 17.388 19.338 20.239 35.14 44.173 16.186 23.752 38.533 73.37 46.231 105.982l-.01.003c5.309 9.471 7.695 23.138 7.609 34.592-17.42-62.611-40.625-121.104-85.421-173.942-47.123-55.506-117.076-94.264-186.955-112.541-6.567-1.746-8.903-3.803-14.615-4.729-.963-.151 1.262 1.491-1.688.984-24.101-4.133-49.323-7.34-74.43-7.767-17.022-.303-33.8.64-49.909 3.168-10.696 1.748-12.211 3.335-21.436 5.469 1.513-.92 2.466-1.748 3.789-2.617-43.293 6.275-84.765 23.185-122.532 46.265-1.707 1.043-2.587.121-4.392 1.21-3.613 2.18-6.212 5.546-9.211 7.65-3.911 2.758-5.158 2.427-8.712 5.063-1.725 1.299-.652 1.673-4.5 4.34-.321.227-1.135-.427-3.54 1.573-6.65 5.407-19.411 17.336-24.349 22.369-6.398 6.329-12.534 10.41-14.997 12.798-6.597 6.476-5.32 7.409-10.522 13.197-36.628 41.47-64.582 88.418-79.824 143.5-1.012 3.484-2.52 16.679-3.85 23.164-.52 2.136-3.036 13.437-3.304 15.17-1.262 6.934-3.04 12.82-3.695 16.692-1.294 7.505-.288 16.011-.349 20.132-.141 6.136-.507 16.264-.543 21.064-.011.834-.018 1.502-.022 1.954-.027 7.318-2.06 4.945-1.448 10.189.199 1.543 1.654-.121 1.894 5.301.218 4.557-.808 6.496-.792 9.633.012 3.153 2.32 8.673 2.485 10.602.855 10.165.274 14.722 2.092 25.729.86 9.252 12.759 50.184 14.874 53.202 6.95 14.287-2.45-10.257-2.622-11.757-1.92-7.77-.9-6.812-4.286-14.191 2.14-7.779-9.242-30.866-4.958-38.037-4.275-5.981-3.275-11.801-3.249-18.715.11-9.583-1.248-2.17-1.781-9.146-.213-2.777.908-10.8.608-14.904-.285-3.704-1.285-5.474-1.533-9.86a33 33 0 0 1-.048-1.573c-.066-9.958.855-17.873 2.877-26.063-.504-1.56-1.007-3.024-1.494-4.574a368 368 0 0 1 3.908-16.887c-.661.83-1.325 1.666-1.98 2.507a302 302 0 0 1 .454-5.022c1.599-5.388 3.226-10.564 5.121-15.992-.007-15.841 1.824-10.912 4.197-19.164 2.49-8.238 2.141-13.545 4.092-19.925 2.698-8.614 3.823-12.576 7.14-21.05 1.923-4.917 6.963-12.48 1.618-6.748 5.813-15.41 15.261-36.049 23.833-48.141 2.496-3.571.3 1.857.774 1.274 2.302-2.905 2.692-6.288 4.886-9.413 3.602-5.217 11.411-14.756 14.556-18.584 4.417-5.568 9.926-15.507 10.574-16.478 3.476-5.47 5.794-5.785 7.043-7.423 7.203-9.281 8.637-11.564 13.48-12.053.999-3.172 8.374-13.896 12.264-14.285-1.421-1.596 6.555-8.603 11.173-13.241 1.317-.331 2.647-.67 3.967-.98 7.801-11.866 31.487-25.96 47.096-34.537.388-.221.258-2 2.767-3.062.163-.06.283.691 1.89-.137 5.229-2.929 26.179-11.689 28.583-12.607 8.686-3.959 9.804-5.659 15.136-8.012 7.061-3.03 8.498-2.432 15.294-5.08 3.183-1.214 5.663-3.579 10.872-5.058 3.084-.867 3.72.095 6.149-.556 8.648-2.279 14.905-4.644 22.949-5.058 1.227-3.893 5.543-2.215 9.452-2.741 15.794-2.216 35.396-6.145 49.133-6.607a319 319 0 0 1 22.858-.073c33.861 1.17 64.972 6.976 97.466 16.585 6.422 1.946 8.488.733 15.196 3.055 3.008 1.062 5.679 3.32 10.532 5.133 3.91 1.462 9.717 3.037 14.512 5.068 1.276.539.925 1.687 2.789 2.502 14.115 6.193 27.927 12.31 41.658 19.834 5.088 2.794 7.255 6.086 7.9 3.22 1.52 1.76 3.012 3.423 4.382 5.12 7.61 2.946 11.976 8.142 20.812 14.288.956.64 8.59 4.17 11.271 8.208.879-.549.856-1.651 1.526-2.252 3.809 2.635 8.409 8.136 10.625 10.299 2.224 2.151 4.611 2.625 5.307 3.253 2.627 2.404.862 3.064 1.042 3.269 10.771 12.606 9.997 10.798 18.721 16.36 2.262 1.362 12.026 15.398 15.651 16.883-.533.631-1.685.346-2.456.626a360 360 0 0 1 8.943 12.467c-.024-1.335-.189-2.846-.168-4.111 5.799 8.736 12.267 14.866 16.906 22.13 2.631 4.161.838 4.577 2.681 6.821.36.441.848-.985 1.807.395 7.733 11.32 9.58 17.208 15.492 29.526 2.714 5.794 7.046 10 9.372 19.059.23.835 1.894 9.819 6.328 14.132-.175 1.97-.066 3.583-.295 5.068 7.431 9.333 2.905 7.714 6.297 22.481 1.945 7.658 8.329 33.228 9.829 41.732 1.037 5.005 2.548 4.687 2.745 5.584 1.098 5.365-.415 5.561.409 10.552.814 5.009 3.085 11.175 3.259 16.418.12 3.998-1.931.979-.979 6.8.192 1.207 1.662-2.337 1.276 3.879-.03.982-1.567 10.928-1.98 12.959-.926-5.27-2.749-20.117-3.642-25.719C722.83 241.644 604.312 73.69 501.924 44.148c-8.67-3.635-13.935-7.27-19.73-9.406-5.813-2.096-1.331.976-6.613-.87-5.288-1.816-8.874-3.982-13.921-5.462-30.032-8.78-61.455-13.516-92.769-13.832a338 338 0 0 0-12.275.093c-9.093.248-16.37 2.009-24.557 2.849-3.217.34-3.494-1.219-5.783-.935-24.635 3.129-46.713 9.693-70.014 17.308-9.66 3.162-20.457 5.919-29.802 9.906-7.708 3.27-15.103 7.885-21.721 11.395-3.588 1.907-6.047 1.894-7.391 2.528-4.653 2.238-2.351 2.647-4.628 3.949-6.247 3.621-10.257 3.994-15.923 7.79-2.211 1.5-1.309 2.256-4.424 4.545-3.938 2.927-3.027 1.047-5.937 3.015-.175.117.851.387-.651 1.48-9.688 7.022-20.997 16.773-29.647 24.358-17.938 15.601-35.13 31.919-48.948 49.466-3.473 4.442-1.707 3.892-2.734 5.35-4.871 7.055-7.685 8.864-12.269 16.627-.764 1.297-2.798 7.135-6.06 11.86-1.768 2.547-4.33 5.134-5.821 7.339-1.488 2.207-.523 3.231-2.044 6.02-2.72 5.093-2.797 3.152-6.39 10.628-1.468 3.026-5.107 13.581-8.468 21.462-5.574 12.801-12.47 28.869-16.719 44.893-1.474 5.508-1.872 12.874-3.591 21.49-2.215 10.457-5.297 30.06-6.07 41.013-.448 5.602-1.884 5.931-1.993 6.599-.657 4.302 1.06 2.664.853 5.528-.271 3.935-1.573 7.603-1.708 11.23-.083 2.313 1.112 2.691 1.117 3.191q.018 1.159.04 2.309c.372 17.557 1.374 33.172 3.955 50.551 14.166 97.452 72.727 186.776 153.491 241.4 6.768 4.57 6.234 5.992 12.503 9.588 6.3 3.575 13.892 4.135 17.405 10.075.51-.548.736-1.012 1.214-1.504 12.622 7.89 26.662 13.091 40.228 18.107 10.059 3.713 19.089 6.791 28.579 9.578 8.444 2.42 7.437 3.439 15.202 3.633 26.266 6.977 53.698 10.222 80.981 10.831 10.731.242 21.349.092 31.964-.376 8.538-3.493 17.041-2.762 29.203-4.455 1.493-.216-.263-.885 4.134-1.612 5.492-.955 8.692-.012 17.892-2.279 2.467-.502 19.908-6.97 26.634-8.429 6.795-1.302 16.332-4.246 23.274-6.205-1.185-.215-2.608-.31-3.891-.488a353 353 0 0 0 9.749-4.368c.78.508 1.564 1.014 2.334 1.529a307 307 0 0 0 4.795-4.557c5.739 1.721 1.059 2.546 9.664-2.718 4.294-2.669 8.161-3.877 12.511-6.684 1.566-1.017 2.045-2.617 3.754-3.744 4.182-2.777 2.439.064 5.126-1.49 2.706-1.585 5.635-5.372 10.775-7.68-3.265 5.827 10.498-4.191 9.71-6.741 1.657-1.13 3.099-2 4.872-3.33 1.884 6.271 8.005-3.463 10.765-6.68 2.806-3.201 3.677-1.794 4.414-2.445 2.109-1.881.067-1.157 1.6-2.397 10.135-8.219 20.037-15.628 29.329-24.635 1.332-1.297-.5-.805 1.099-2.265 1.596-1.464 3.727-2.283 5.907-4.643.584-.633.174-1.398 1.094-2.369 19.27-20.346 35.957-41.389 50.438-66.144 1.302-2.247 1.043-4.73 3.473-9.091 2.426-4.344 7.081-10.503 9.835-16.097.731-1.48-.185-2.404.758-4.37 3.195-6.702 6.621-12.215 9.582-19.379 5-12.128 8.511-25.368 12.567-38.046.764-2.415 1.658-1.756 2.81-5.226 1.951-6.002-.063-4.042.034-5.323.288-4.189 2.499-5.069 2.802-9.12.043-.617-1.279.01-1.189-.532 1.411-8.379 4.218-8.398 4.142-17.634 2.718-7.784 1.328 5.68 1.862 7.225 1.44 3.74 5.341-4.87 6.796-10.121 1.271-4.525-.013-4.657.209-6.493 1.206-9.727 1.923-24.307 2.689-31.692.492-4.502.779 3.649 1.266 1.358.492-2.279-.425-3.783.661-6.122 1.093-2.328 4.172-7.194 5.635-6.275M136.394 648.263c14.47 6.153 46.38 28.929 65.269 38.749 15.323 8.544 28 17.771 26.805 11.239-17.361-7.512-31.309-14.024-48.306-24.645-1.799-1.074-11.93-8.252-15.391-10.841-1.965-1.432-1.501-2.228-4.186-4.135-.586-.408-4.516-1.776-5.665-2.68-4.022-3.013-14.407-13.742-15.962-15.078-4.464-3.586-3.724-1.081-5.772-2.507-6.837-4.879-6.061-7.095-12.514-12.264-1.144-.928-5.999-2.991-10.11-7.582-1.673-1.862-3.883-5.616-5.205-6.985-7.242-7.433-15.726-15.517-21.4-23.216-4.625-6.322-2.168-5.53-4.463-8.953-2.278-3.423-6.512-6.535-8.188-8.828-2.69-3.653-4.87-8.791-5.627-9.967-15-23.152-26.852-44.934-36.396-69.957 5.56 17.333 12.499 34.225 20.573 50.497 6.31 8.292 2.575 4.487 5.57 10.606 2.426 4.815 5.258 4.616 8.781 10.695l-.009-.015c1.813 3.126 4.682 10.703 9.817 16.575.19.203 1.636.017 5.11 4.622 7.777 10.419 21.108 25.174 31.143 35.753 2.936 3.117 1.329 3.479 4.828 7.178 2.568 2.69 6.544 4.736 10.632 8.846 5.129 5.138 6.394 9.104 12.196 9.966-.385 1.104-1.228 1.791-1.53 2.927m379.427 50.074c.988-.234 14.86-3.015 9.603-4.569-17.199 6.538-35.381 14.479-54.138 19.09 7.327 1.598 17.669-3.142 30.18-8.364l.016-.007c.593-.248-1.555 1.62 1.773.116 1.624-.729 7.315-4.617 12.566-6.266"/></svg>